<?xml version="1.0" encoding="UTF-8" standalone="no"?>
<!-- Generated by graphviz version 2.26.3 (20100126.1600)
 -->

<!-- Title: tap_states Pages: 1 -->

<svg
   xmlns:dc="http://purl.org/dc/elements/1.1/"
   xmlns:cc="http://creativecommons.org/ns#"
   xmlns:rdf="http://www.w3.org/1999/02/22-rdf-syntax-ns#"
   xmlns:svg="http://www.w3.org/2000/svg"
   xmlns="http://www.w3.org/2000/svg"
   xmlns:sodipodi="http://sodipodi.sourceforge.net/DTD/sodipodi-0.dtd"
   xmlns:inkscape="http://www.inkscape.org/namespaces/inkscape"
   width="637.38971"
   height="782.40649"
   viewBox="0 0 509.91177 625.9252"
   id="svg2"
   version="1.1"
   inkscape:version="0.48.5 r10040"
   sodipodi:docname="tap_states.svg">
  <metadata
     id="metadata323">
    <rdf:RDF>
      <cc:Work
         rdf:about="">
        <dc:format>image/svg+xml</dc:format>
        <dc:type
           rdf:resource="http://purl.org/dc/dcmitype/StillImage" />
        <dc:title></dc:title>
      </cc:Work>
    </rdf:RDF>
  </metadata>
  <defs
     id="defs321">
    <marker
       inkscape:stockid="TriangleInL"
       orient="auto"
       refY="0"
       refX="0"
       id="TriangleInL"
       style="overflow:visible">
      <path
         id="path4207"
         d="m 5.77,0 -8.65,5 0,-10 8.65,5 z"
         style="fill-rule:evenodd;stroke:#000000;stroke-width:1pt"
         transform="scale(-0.8,-0.8)"
         inkscape:connector-curvature="0" />
    </marker>
    <marker
       inkscape:stockid="TriangleOutL"
       orient="auto"
       refY="0"
       refX="0"
       id="TriangleOutL"
       style="overflow:visible">
      <path
         id="path4216"
         d="m 5.77,0 -8.65,5 0,-10 8.65,5 z"
         style="fill-rule:evenodd;stroke:#000000;stroke-width:1pt"
         transform="scale(0.8,0.8)"
         inkscape:connector-curvature="0" />
    </marker>
    <marker
       inkscape:stockid="Arrow2Lend"
       orient="auto"
       refY="0"
       refX="0"
       id="Arrow2Lend"
       style="overflow:visible">
      <path
         id="path4095"
         style="fill-rule:evenodd;stroke-width:0.625;stroke-linejoin:round"
         d="M 8.7185878,4.0337352 -2.2072895,0.01601326 8.7185884,-4.0017078 c -1.7454984,2.3720609 -1.7354408,5.6174519 -6e-7,8.035443 z"
         transform="matrix(-1.1,0,0,-1.1,-1.1,0)"
         inkscape:connector-curvature="0" />
    </marker>
    <marker
       inkscape:stockid="Arrow1Lstart"
       orient="auto"
       refY="0"
       refX="0"
       id="Arrow1Lstart"
       style="overflow:visible">
      <path
         id="path4074"
         d="M 0,0 5,-5 -12.5,0 5,5 0,0 z"
         style="fill-rule:evenodd;stroke:#000000;stroke-width:1pt"
         transform="matrix(0.8,0,0,0.8,10,0)"
         inkscape:connector-curvature="0" />
    </marker>
    <marker
       inkscape:stockid="Arrow1Lend"
       orient="auto"
       refY="0"
       refX="0"
       id="Arrow1Lend"
       style="overflow:visible">
      <path
         id="path4077"
         d="M 0,0 5,-5 -12.5,0 5,5 0,0 z"
         style="fill-rule:evenodd;stroke:#000000;stroke-width:1pt"
         transform="matrix(-0.8,0,0,-0.8,-10,0)"
         inkscape:connector-curvature="0" />
    </marker>
    <marker
       inkscape:stockid="Arrow1Lend"
       orient="auto"
       refY="0"
       refX="0"
       id="Arrow1Lend-9"
       style="overflow:visible">
      <path
         inkscape:connector-curvature="0"
         id="path4077-0"
         d="M 0,0 5,-5 -12.5,0 5,5 0,0 z"
         style="fill-rule:evenodd;stroke:#000000;stroke-width:1pt"
         transform="matrix(-0.8,0,0,-0.8,-10,0)" />
    </marker>
    <marker
       inkscape:stockid="Arrow1Lend"
       orient="auto"
       refY="0"
       refX="0"
       id="Arrow1Lend-0"
       style="overflow:visible">
      <path
         inkscape:connector-curvature="0"
         id="path4077-1"
         d="M 0,0 5,-5 -12.5,0 5,5 0,0 z"
         style="fill-rule:evenodd;stroke:#000000;stroke-width:1pt"
         transform="matrix(-0.8,0,0,-0.8,-10,0)" />
    </marker>
    <marker
       inkscape:stockid="Arrow1Lend"
       orient="auto"
       refY="0"
       refX="0"
       id="Arrow1Lend-6"
       style="overflow:visible">
      <path
         inkscape:connector-curvature="0"
         id="path4077-9"
         d="M 0,0 5,-5 -12.5,0 5,5 0,0 z"
         style="fill-rule:evenodd;stroke:#000000;stroke-width:1pt"
         transform="matrix(-0.8,0,0,-0.8,-10,0)" />
    </marker>
    <marker
       inkscape:stockid="Arrow1Lend"
       orient="auto"
       refY="0"
       refX="0"
       id="Arrow1Lend-3"
       style="overflow:visible">
      <path
         inkscape:connector-curvature="0"
         id="path4077-98"
         d="M 0,0 5,-5 -12.5,0 5,5 0,0 z"
         style="fill-rule:evenodd;stroke:#000000;stroke-width:1pt"
         transform="matrix(-0.8,0,0,-0.8,-10,0)" />
    </marker>
  </defs>
  <sodipodi:namedview
     pagecolor="#ffffff"
     bordercolor="#666666"
     borderopacity="1"
     objecttolerance="10"
     gridtolerance="10"
     guidetolerance="10"
     inkscape:pageopacity="0"
     inkscape:pageshadow="2"
     inkscape:window-width="1588"
     inkscape:window-height="838"
     id="namedview319"
     showgrid="false"
     fit-margin-top="20"
     fit-margin-right="20"
     fit-margin-bottom="20"
     fit-margin-left="20"
     inkscape:zoom="1"
     inkscape:cx="140.92512"
     inkscape:cy="448.34068"
     inkscape:window-x="0"
     inkscape:window-y="0"
     inkscape:window-maximized="1"
     inkscape:current-layer="svg2" />
  <polygon
     style="fill:#ffffff;stroke:#ffffff"
     id="polygon7"
     points="467,5 -4,5 -4,5 -4,-534.997 467,-534.997 "
     transform="translate(20.499999,551.497)" />
  <g
     class="node"
     id="node1"
     transform="translate(20.499999,551.497)">
    <title
       id="title10">reset</title>
    <polygon
       style="fill:none;stroke:#000000"
       id="polygon12"
       points="156,-490 156,-526 156,-526 28,-526 28,-490 " />
    <text
       style="font-size:14px;text-anchor:middle;font-family:'Times Roman,serif'"
       id="text14"
       font-size="14.00"
       y="-503.89999"
       x="92">Test-Logic-Reset</text>
  </g>
  <g
     class="edge"
     id="edge43"
     transform="translate(20.499999,551.497)">
    <title
       id="title17">reset:sw-&gt;reset:nw</title>
    <path
       style="fill:none;stroke:#000000"
       inkscape:connector-curvature="0"
       id="path19"
       d="m 28,-490 c -6,8.5 -18,8.5 -18,-18 0,-16.148 4.4561,-22.456 9.2951,-22.997" />
    <polygon
       style="fill:#000000;stroke:#000000"
       id="polygon21"
       points="21.0699,-534.014 28,-526 17.5849,-527.943 21.0699,-534.014 " />
    <text
       style="font-size:14px;text-anchor:middle;font-family:'Times Roman,serif'"
       id="text23"
       font-size="14.00"
       y="-503.89999"
       x="5">1</text>
  </g>
  <g
     class="node"
     id="node3"
     transform="translate(20.499999,551.497)">
    <title
       id="title26">idle</title>
    <polygon
       style="fill:none;stroke:#000000"
       id="polygon28"
       points="144,-420 144,-456 144,-456 40,-456 40,-420 " />
    <text
       style="font-size:14px;text-anchor:middle;font-family:'Times Roman,serif'"
       id="text30"
       font-size="14.00"
       y="-433.89999"
       x="92">Run-Test/Idle</text>
  </g>
  <g
     class="edge"
     id="edge2"
     transform="translate(20.499999,551.497)">
    <title
       id="title33">reset-&gt;idle</title>
    <path
       style="fill:none;stroke:#000000"
       inkscape:connector-curvature="0"
       id="path35"
       d="m 92,-489.973 c 0,7.21 0,15.689 0,23.683" />
    <polygon
       style="fill:#000000;stroke:#000000"
       id="polygon37"
       points="95.5001,-466.209 92,-456.209 88.5001,-466.209 95.5001,-466.209 " />
    <text
       style="font-size:14px;text-anchor:middle;font-family:'Times Roman,serif'"
       id="text39"
       font-size="14.00"
       y="-468.89999"
       x="97">0</text>
  </g>
  <g
     class="edge"
     id="edge45"
     transform="translate(20.499999,551.497)">
    <title
       id="title42">idle:sw-&gt;idle:nw</title>
    <path
       style="fill:none;stroke:#000000"
       inkscape:connector-curvature="0"
       id="path44"
       d="m 40,-420 c -6,8.5 -18,8.5 -18,-18 0,-16.148 4.4561,-22.456 9.2951,-22.997" />
    <polygon
       style="fill:#000000;stroke:#000000"
       id="polygon46"
       points="33.0699,-464.014 40,-456 29.5849,-457.943 33.0699,-464.014 " />
    <text
       style="font-size:14px;text-anchor:middle;font-family:'Times Roman,serif'"
       id="text48"
       font-size="14.00"
       y="-433.89999"
       x="17">0</text>
  </g>
  <g
     class="node"
     id="node6"
     transform="translate(20.499999,551.497)">
    <title
       id="title51">seldr</title>
    <polygon
       style="fill:none;stroke:#000000"
       id="polygon53"
       points="302,-420 302,-456 302,-456 180,-456 180,-420 " />
    <text
       style="font-size:14px;text-anchor:middle;font-family:'Times Roman,serif'"
       id="text55"
       font-size="14.00"
       y="-433.89999"
       x="241">Select-DR-Scan</text>
  </g>
  <g
     class="edge"
     id="edge5"
     transform="translate(20.499999,551.497)">
    <title
       id="title58">idle-&gt;seldr</title>
    <path
       style="fill:none;stroke:#000000"
       inkscape:connector-curvature="0"
       id="path60"
       d="m 144.113,-438 c 8.324,0 17.059,0 25.733,0" />
    <polygon
       style="fill:#000000;stroke:#000000"
       id="polygon62"
       points="169.973,-441.5 179.973,-438 169.973,-434.5 169.973,-441.5 " />
    <text
       style="font-size:14px;text-anchor:middle;font-family:'Times Roman,serif'"
       id="text64"
       font-size="14.00"
       y="-442.39999"
       x="162">1</text>
  </g>
  <g
     class="node"
     id="node8"
     transform="translate(20.499999,551.497)">
    <title
       id="title67">selir</title>
    <polygon
       style="fill:none;stroke:#000000"
       id="polygon69"
       points="454,-420 454,-456 454,-456 338,-456 338,-420 " />
    <text
       style="font-size:14px;text-anchor:middle;font-family:'Times Roman,serif'"
       id="text71"
       font-size="14.00"
       y="-433.89999"
       x="396">Select-IR-Scan</text>
  </g>
  <g
     class="edge"
     id="edge7"
     transform="translate(20.499999,551.497)">
    <title
       id="title74">seldr-&gt;selir</title>
    <path
       style="fill:none;stroke:#000000"
       inkscape:connector-curvature="0"
       id="path76"
       d="m 302.26,-438 c 8.362,0 16.988,0 25.465,0" />
    <polygon
       style="fill:#000000;stroke:#000000"
       id="polygon78"
       points="327.963,-441.5 337.963,-438 327.963,-434.5 327.963,-441.5 " />
    <text
       style="font-size:14px;text-anchor:middle;font-family:'Times Roman,serif'"
       id="text80"
       font-size="14.00"
       y="-442.39999"
       x="320">1</text>
  </g>
  <g
     class="node"
     id="node11"
     transform="translate(20.499999,551.497)">
    <title
       id="title83">captdr</title>
    <polygon
       style="fill:none;stroke:#000000"
       id="polygon85"
       points="290,-350 290,-386 290,-386 192,-386 192,-350 " />
    <text
       style="font-size:14px;text-anchor:middle;font-family:'Times Roman,serif'"
       id="text87"
       font-size="14.00"
       y="-363.89999"
       x="241">Capture-DR</text>
  </g>
  <g
     class="edge"
     id="edge10"
     transform="translate(20.499999,551.497)">
    <title
       id="title90">seldr-&gt;captdr</title>
    <path
       style="fill:none;stroke:#000000"
       inkscape:connector-curvature="0"
       id="path92"
       d="m 241,-419.973 c 0,7.21 0,15.689 0,23.683" />
    <polygon
       style="fill:#000000;stroke:#000000"
       id="polygon94"
       points="244.5,-396.209 241,-386.209 237.5,-396.209 244.5,-396.209 " />
    <text
       style="font-size:14px;text-anchor:middle;font-family:'Times Roman,serif'"
       id="text96"
       font-size="14.00"
       y="-398.89999"
       x="246">0</text>
  </g>
  <g
     class="edge"
     id="edge47"
     transform="translate(20.499999,551.497)">
    <title
       id="title99">selir-&gt;reset</title>
    <path
       style="fill:none;stroke:#000000"
       inkscape:connector-curvature="0"
       id="path101"
       d="m 337.9,-451.378 c -48.837,-11.246 -118.936,-27.387 -171.804,-39.56" />
    <polygon
       style="fill:#000000;stroke:#000000"
       id="polygon103"
       points="165.059,-487.586 156.099,-493.24 166.63,-494.407 165.059,-487.586 " />
    <text
       style="font-size:14px;text-anchor:middle;font-family:'Times Roman,serif'"
       id="text105"
       font-size="14.00"
       y="-468.89999"
       x="285">1</text>
  </g>
  <g
     class="node"
     id="node26"
     transform="translate(20.499999,551.497)">
    <title
       id="title108">captir</title>
    <polygon
       style="fill:none;stroke:#000000"
       id="polygon110"
       points="442,-350 442,-386 442,-386 350,-386 350,-350 " />
    <text
       style="font-size:14px;text-anchor:middle;font-family:'Times Roman,serif'"
       id="text112"
       font-size="14.00"
       y="-363.89999"
       x="396">Capture-IR</text>
  </g>
  <g
     class="edge"
     id="edge27"
     transform="translate(20.499999,551.497)">
    <title
       id="title115">selir-&gt;captir</title>
    <path
       style="fill:none;stroke:#000000"
       inkscape:connector-curvature="0"
       id="path117"
       d="m 396,-419.973 c 0,7.21 0,15.689 0,23.683" />
    <polygon
       style="fill:#000000;stroke:#000000"
       id="polygon119"
       points="399.5,-396.209 396,-386.209 392.5,-396.209 399.5,-396.209 " />
    <text
       style="font-size:14px;text-anchor:middle;font-family:'Times Roman,serif'"
       id="text121"
       font-size="14.00"
       y="-398.89999"
       x="401">0</text>
  </g>
  <g
     class="node"
     id="node13"
     transform="translate(20.499999,551.497)">
    <title
       id="title124">shiftdr</title>
    <polygon
       style="fill:none;stroke:#000000"
       id="polygon126"
       points="278,-280 278,-316 278,-316 204,-316 204,-280 " />
    <text
       style="font-size:14px;text-anchor:middle;font-family:'Times Roman,serif'"
       id="text128"
       font-size="14.00"
       y="-293.89999"
       x="241">Shift-DR</text>
  </g>
  <g
     class="edge"
     id="edge12"
     transform="translate(20.499999,551.497)">
    <title
       id="title131">captdr-&gt;shiftdr</title>
    <path
       style="fill:none;stroke:#000000"
       inkscape:connector-curvature="0"
       id="path133"
       d="m 241,-349.973 c 0,7.21 0,15.689 0,23.683" />
    <polygon
       style="fill:#000000;stroke:#000000"
       id="polygon135"
       points="244.5,-326.209 241,-316.209 237.5,-326.209 244.5,-326.209 " />
    <text
       style="font-size:14px;text-anchor:middle;font-family:'Times Roman,serif'"
       id="text137"
       font-size="14.00"
       y="-328.89999"
       x="246">0</text>
  </g>
  <g
     class="edge"
     id="edge22"
     transform="translate(20.499999,551.497)">
    <title
       id="title140">shiftdr:se-&gt;shiftdr:ne</title>
    <path
       style="fill:none;stroke:#000000"
       inkscape:connector-curvature="0"
       id="path142"
       d="m 278,-280 c 6,8.5 18,8.5 18,-18 0,-16.148 -4.456,-22.456 -9.295,-22.997" />
    <polygon
       style="fill:#000000;stroke:#000000"
       id="polygon144"
       points="288.415,-317.943 278,-316 284.93,-324.014 288.415,-317.943 " />
    <text
       style="font-size:14px;text-anchor:middle;font-family:'Times Roman,serif'"
       id="text146"
       font-size="14.00"
       y="-293.89999"
       x="301">0</text>
  </g>
  <g
     class="node"
     id="node15"
     transform="translate(20.499999,551.497)">
    <title
       id="title149">exit1dr</title>
    <polygon
       style="fill:none;stroke:#000000"
       id="polygon151"
       points="280,-210 280,-246 280,-246 202,-246 202,-210 " />
    <text
       style="font-size:14px;text-anchor:middle;font-family:'Times Roman,serif'"
       id="text153"
       font-size="14.00"
       y="-223.89999"
       x="241">Exit1-DR</text>
  </g>
  <g
     class="edge"
     id="edge14"
     transform="translate(20.499999,551.497)">
    <title
       id="title156">shiftdr-&gt;exit1dr</title>
    <path
       style="fill:none;stroke:#000000"
       inkscape:connector-curvature="0"
       id="path158"
       d="m 241,-279.973 c 0,7.21 0,15.689 0,23.683" />
    <polygon
       style="fill:#000000;stroke:#000000"
       id="polygon160"
       points="244.5,-256.209 241,-246.209 237.5,-256.209 244.5,-256.209 " />
    <text
       style="font-size:14px;text-anchor:middle;font-family:'Times Roman,serif'"
       id="text162"
       font-size="14.00"
       y="-258.89999"
       x="246">1</text>
  </g>
  <g
     class="node"
     id="node17"
     transform="translate(20.499999,551.497)">
    <title
       id="title165">pausedr</title>
    <polygon
       style="fill:none;stroke:#000000"
       id="polygon167"
       points="282,-140 282,-176 282,-176 200,-176 200,-140 " />
    <text
       style="font-size:14px;text-anchor:middle;font-family:'Times Roman,serif'"
       id="text169"
       font-size="14.00"
       y="-153.89999"
       x="241">Pause-DR</text>
  </g>
  <g
     class="edge"
     id="edge16"
     transform="translate(20.499999,551.497)">
    <title
       id="title172">exit1dr-&gt;pausedr</title>
    <path
       style="fill:none;stroke:#000000"
       inkscape:connector-curvature="0"
       id="path174"
       d="m 241,-209.973 c 0,7.21 0,15.689 0,23.683" />
    <polygon
       style="fill:#000000;stroke:#000000"
       id="polygon176"
       points="244.5,-186.209 241,-176.209 237.5,-186.209 244.5,-186.209 " />
    <text
       style="font-size:14px;text-anchor:middle;font-family:'Times Roman,serif'"
       id="text178"
       font-size="14.00"
       y="-188.89999"
       x="246">0</text>
  </g>
  <g
     class="edge"
     id="edge24"
     transform="translate(20.499999,551.497)">
    <title
       id="title181">pausedr:se-&gt;pausedr:ne</title>
    <path
       style="fill:none;stroke:#000000"
       inkscape:connector-curvature="0"
       id="path183"
       d="m 282,-140 c 6,8.5 18,8.5 18,-18 0,-16.148 -4.456,-22.456 -9.295,-22.997" />
    <polygon
       style="fill:#000000;stroke:#000000"
       id="polygon185"
       points="292.415,-177.943 282,-176 288.93,-184.014 292.415,-177.943 " />
    <text
       style="font-size:14px;text-anchor:middle;font-family:'Times Roman,serif'"
       id="text187"
       font-size="14.00"
       y="-153.89999"
       x="305">0</text>
  </g>
  <g
     class="node"
     id="node19"
     transform="translate(20.499999,551.497)">
    <title
       id="title190">exit2dr</title>
    <polygon
       style="fill:none;stroke:#000000"
       id="polygon192"
       points="280,-70 280,-106 280,-106 202,-106 202,-70 " />
    <text
       style="font-size:14px;text-anchor:middle;font-family:'Times Roman,serif'"
       id="text194"
       font-size="14.00"
       y="-83.900002"
       x="241">Exit2-DR</text>
  </g>
  <g
     class="edge"
     id="edge18"
     transform="translate(20.499999,551.497)">
    <title
       id="title197">pausedr-&gt;exit2dr</title>
    <path
       style="fill:none;stroke:#000000"
       inkscape:connector-curvature="0"
       id="path199"
       d="m 241,-139.973 c 0,7.21 0,15.689 0,23.683" />
    <polygon
       style="fill:#000000;stroke:#000000"
       id="polygon201"
       points="244.5,-116.209 241,-106.209 237.5,-116.209 244.5,-116.209 " />
    <text
       style="font-size:14px;text-anchor:middle;font-family:'Times Roman,serif'"
       id="text203"
       font-size="14.00"
       y="-118.9"
       x="246">1</text>
  </g>
  <g
     class="node"
     id="node21"
     transform="translate(20.499999,551.497)">
    <title
       id="title206">updatedr</title>
    <polygon
       style="fill:none;stroke:#000000"
       id="polygon208"
       points="287,0 287,-36 287,-36 195,-36 195,-1.06581e-14 " />
    <text
       style="font-size:14px;text-anchor:middle;font-family:'Times Roman,serif'"
       id="text210"
       font-size="14.00"
       y="-13.9"
       x="241">Update-DR</text>
  </g>
  <g
     class="edge"
     id="edge20"
     transform="translate(20.499999,551.497)">
    <title
       id="title213">exit2dr-&gt;updatedr</title>
    <path
       style="fill:none;stroke:#000000"
       inkscape:connector-curvature="0"
       id="path215"
       d="m 241,-69.9733 c 0,7.2106 0,15.6893 0,23.6829" />
    <polygon
       style="fill:#000000;stroke:#000000"
       id="polygon217"
       points="244.5,-46.2089 241,-36.2089 237.5,-46.209 244.5,-46.2089 " />
    <text
       style="font-size:14px;text-anchor:middle;font-family:'Times Roman,serif'"
       id="text219"
       font-size="14.00"
       y="-48.900002"
       x="246">1</text>
  </g>
  <g
     class="node"
     id="node28"
     transform="translate(20.499999,551.497)">
    <title
       id="title222">shiftir</title>
    <polygon
       style="fill:none;stroke:#000000"
       id="polygon224"
       points="430,-280 430,-316 430,-316 362,-316 362,-280 " />
    <text
       style="font-size:14px;text-anchor:middle;font-family:'Times Roman,serif'"
       id="text226"
       font-size="14.00"
       y="-293.89999"
       x="396">Shift-IR</text>
  </g>
  <g
     class="edge"
     id="edge29"
     transform="translate(20.499999,551.497)">
    <title
       id="title229">captir-&gt;shiftir</title>
    <path
       style="fill:none;stroke:#000000"
       inkscape:connector-curvature="0"
       id="path231"
       d="m 396,-349.973 c 0,7.21 0,15.689 0,23.683" />
    <polygon
       style="fill:#000000;stroke:#000000"
       id="polygon233"
       points="399.5,-326.209 396,-316.209 392.5,-326.209 399.5,-326.209 " />
    <text
       style="font-size:14px;text-anchor:middle;font-family:'Times Roman,serif'"
       id="text235"
       font-size="14.00"
       y="-328.89999"
       x="401">0</text>
  </g>
  <g
     class="edge"
     id="edge39"
     transform="translate(20.499999,551.497)">
    <title
       id="title238">shiftir:se-&gt;shiftir:ne</title>
    <path
       style="fill:none;stroke:#000000"
       inkscape:connector-curvature="0"
       id="path240"
       d="m 430,-280 c 6,8.5 18,8.5 18,-18 0,-16.148 -4.456,-22.456 -9.295,-22.997" />
    <polygon
       style="fill:#000000;stroke:#000000"
       id="polygon242"
       points="440.415,-317.943 430,-316 436.93,-324.014 440.415,-317.943 " />
    <text
       style="font-size:14px;text-anchor:middle;font-family:'Times Roman,serif'"
       id="text244"
       font-size="14.00"
       y="-293.89999"
       x="453">0</text>
  </g>
  <g
     class="node"
     id="node30"
     transform="translate(20.499999,551.497)">
    <title
       id="title247">exit1ir</title>
    <polygon
       style="fill:none;stroke:#000000"
       id="polygon249"
       points="432,-210 432,-246 432,-246 360,-246 360,-210 " />
    <text
       style="font-size:14px;text-anchor:middle;font-family:'Times Roman,serif'"
       id="text251"
       font-size="14.00"
       y="-223.89999"
       x="396">Exit1-IR</text>
  </g>
  <g
     class="edge"
     id="edge31"
     transform="translate(20.499999,551.497)">
    <title
       id="title254">shiftir-&gt;exit1ir</title>
    <path
       style="fill:none;stroke:#000000"
       inkscape:connector-curvature="0"
       id="path256"
       d="m 396,-279.973 c 0,7.21 0,15.689 0,23.683" />
    <polygon
       style="fill:#000000;stroke:#000000"
       id="polygon258"
       points="399.5,-256.209 396,-246.209 392.5,-256.209 399.5,-256.209 " />
    <text
       style="font-size:14px;text-anchor:middle;font-family:'Times Roman,serif'"
       id="text260"
       font-size="14.00"
       y="-258.89999"
       x="401">1</text>
  </g>
  <g
     class="node"
     id="node32"
     transform="translate(20.499999,551.497)">
    <title
       id="title263">pauseir</title>
    <polygon
       style="fill:none;stroke:#000000"
       id="polygon265"
       points="434,-140 434,-176 434,-176 358,-176 358,-140 " />
    <text
       style="font-size:14px;text-anchor:middle;font-family:'Times Roman,serif'"
       id="text267"
       font-size="14.00"
       y="-153.89999"
       x="396">Pause-IR</text>
  </g>
  <g
     class="edge"
     id="edge33"
     transform="translate(20.499999,551.497)">
    <title
       id="title270">exit1ir-&gt;pauseir</title>
    <path
       style="fill:none;stroke:#000000"
       inkscape:connector-curvature="0"
       id="path272"
       d="m 396,-209.973 c 0,7.21 0,15.689 0,23.683" />
    <polygon
       style="fill:#000000;stroke:#000000"
       id="polygon274"
       points="399.5,-186.209 396,-176.209 392.5,-186.209 399.5,-186.209 " />
    <text
       style="font-size:14px;text-anchor:middle;font-family:'Times Roman,serif'"
       id="text276"
       font-size="14.00"
       y="-188.89999"
       x="401">0</text>
  </g>
  <g
     class="edge"
     id="edge41"
     transform="translate(20.499999,551.497)">
    <title
       id="title279">pauseir:se-&gt;pauseir:ne</title>
    <path
       style="fill:none;stroke:#000000"
       inkscape:connector-curvature="0"
       id="path281"
       d="m 434,-140 c 6,8.5 18,8.5 18,-18 0,-16.148 -4.456,-22.456 -9.295,-22.997" />
    <polygon
       style="fill:#000000;stroke:#000000"
       id="polygon283"
       points="444.415,-177.943 434,-176 440.93,-184.014 444.415,-177.943 " />
    <text
       style="font-size:14px;text-anchor:middle;font-family:'Times Roman,serif'"
       id="text285"
       font-size="14.00"
       y="-153.89999"
       x="457">0</text>
  </g>
  <g
     class="node"
     id="node34"
     transform="translate(20.499999,551.497)">
    <title
       id="title288">exit2ir</title>
    <polygon
       style="fill:none;stroke:#000000"
       id="polygon290"
       points="432,-70 432,-106 432,-106 360,-106 360,-70 " />
    <text
       style="font-size:14px;text-anchor:middle;font-family:'Times Roman,serif'"
       id="text292"
       font-size="14.00"
       y="-83.900002"
       x="396">Exit2-IR</text>
  </g>
  <g
     class="edge"
     id="edge35"
     transform="translate(20.499999,551.497)">
    <title
       id="title295">pauseir-&gt;exit2ir</title>
    <path
       style="fill:none;stroke:#000000"
       inkscape:connector-curvature="0"
       id="path297"
       d="m 396,-139.973 c 0,7.21 0,15.689 0,23.683" />
    <polygon
       style="fill:#000000;stroke:#000000"
       id="polygon299"
       points="399.5,-116.209 396,-106.209 392.5,-116.209 399.5,-116.209 " />
    <text
       style="font-size:14px;text-anchor:middle;font-family:'Times Roman,serif'"
       id="text301"
       font-size="14.00"
       y="-118.9"
       x="401">1</text>
  </g>
  <g
     class="node"
     id="node36"
     transform="translate(20.499999,551.497)">
    <title
       id="title304">updateir</title>
    <polygon
       style="fill:none;stroke:#000000"
       id="polygon306"
       points="439,0 439,-36 439,-36 353,-36 353,-1.06581e-14 " />
    <text
       style="font-size:14px;text-anchor:middle;font-family:'Times Roman,serif'"
       id="text308"
       font-size="14.00"
       y="-13.9"
       x="396">Update-IR</text>
  </g>
  <g
     class="edge"
     id="edge37"
     transform="translate(20.499999,551.497)">
    <title
       id="title311">exit2ir-&gt;updateir</title>
    <path
       style="fill:none;stroke:#000000"
       inkscape:connector-curvature="0"
       id="path313"
       d="m 396,-69.9733 c 0,7.2106 0,15.6893 0,23.6829" />
    <polygon
       style="fill:#000000;stroke:#000000"
       id="polygon315"
       points="399.5,-46.2089 396,-36.2089 392.5,-46.209 399.5,-46.2089 " />
    <text
       style="font-size:14px;text-anchor:middle;font-family:'Times Roman,serif'"
       id="text317"
       font-size="14.00"
       y="-48.900002"
       x="401">1</text>
  </g>
  <path
     style="fill:none;stroke:#000000;stroke-width:0.80000001;stroke-linecap:butt;stroke-linejoin:miter;stroke-miterlimit:4;stroke-opacity:1;stroke-dasharray:none;marker-end:url(#Arrow1Lend)"
     d="M 211.91016,183.25173 C 169.49122,231.20552 176.57192,277.952 222.4074,323.75324"
     id="path3300"
     inkscape:connector-curvature="0"
     sodipodi:nodetypes="cc" />
  <path
     sodipodi:nodetypes="cc"
     inkscape:connector-curvature="0"
     id="path6214"
     d="M 370.17624,183.25173 C 327.75729,231.20552 334.838,277.952 380.67348,323.75324"
     style="fill:none;stroke:#000000;stroke-width:0.80000001;stroke-linecap:butt;stroke-linejoin:miter;stroke-miterlimit:4;stroke-opacity:1;stroke-dasharray:none;marker-end:url(#Arrow1Lend)" />
  <text
     xml:space="preserve"
     style="font-size:16px;font-style:normal;font-variant:normal;font-weight:normal;font-stretch:normal;text-align:start;line-height:125%;letter-spacing:0px;word-spacing:0px;writing-mode:lr-tb;text-anchor:start;fill:#000000;fill-opacity:1;stroke:none;font-family:Serif;-inkscape-font-specification:Serif"
     x="185.29999"
     y="254.7"
     id="text6421"
     sodipodi:linespacing="125%"><tspan
       sodipodi:role="line"
       id="tspan6423"
       x="185.29999"
       y="254.7">1</tspan></text>
  <text
     xml:space="preserve"
     style="font-size:16px;font-style:normal;font-variant:normal;font-weight:normal;font-stretch:normal;text-align:start;line-height:125%;letter-spacing:0px;word-spacing:0px;writing-mode:lr-tb;text-anchor:start;fill:#000000;fill-opacity:1;stroke:none;font-family:Serif;-inkscape-font-specification:Serif"
     x="345.17032"
     y="255.03751"
     id="text6421-3"
     sodipodi:linespacing="125%"><tspan
       sodipodi:role="line"
       id="tspan6423-3"
       x="345.17032"
       y="255.03751">1</tspan></text>
  <path
     sodipodi:nodetypes="cc"
     inkscape:connector-curvature="0"
     id="path6446"
     d="M 221.51016,464.55324 C 179.09122,416.59945 178.97192,298.65297 224.8074,252.85173"
     style="fill:none;stroke:#000000;stroke-width:0.80000001;stroke-linecap:butt;stroke-linejoin:miter;stroke-miterlimit:4;stroke-opacity:1;stroke-dasharray:none;marker-end:url(#Arrow1Lend)" />
  <path
     style="fill:none;stroke:#000000;stroke-width:0.80000001;stroke-linecap:butt;stroke-linejoin:miter;stroke-miterlimit:4;stroke-opacity:1;stroke-dasharray:none;marker-end:url(#Arrow1Lend)"
     d="m 299.66177,321.24924 c 52.01894,29.5538 54.53824,181.10028 7.90276,214.90151"
     id="path3300-2"
     inkscape:connector-curvature="0"
     sodipodi:nodetypes="cc" />
  <text
     xml:space="preserve"
     style="font-size:16px;font-style:normal;font-variant:normal;font-weight:normal;font-stretch:normal;text-align:start;line-height:125%;letter-spacing:0px;word-spacing:0px;writing-mode:lr-tb;text-anchor:start;fill:#000000;fill-opacity:1;stroke:none;font-family:Serif;-inkscape-font-specification:Serif"
     x="305.17032"
     y="321.4375"
     id="text6421-6"
     sodipodi:linespacing="125%"><tspan
       sodipodi:role="line"
       id="tspan6423-8"
       x="305.17032"
       y="321.4375">1</tspan></text>
  <text
     xml:space="preserve"
     style="font-size:16px;font-style:normal;font-variant:normal;font-weight:normal;font-stretch:normal;text-align:start;line-height:125%;letter-spacing:0px;word-spacing:0px;writing-mode:lr-tb;text-anchor:start;fill:#000000;fill-opacity:1;stroke:none;font-family:Serif;-inkscape-font-specification:Serif"
     x="196.3703"
     y="458.23752"
     id="text6421-1"
     sodipodi:linespacing="125%"><tspan
       sodipodi:role="line"
       id="tspan6514"
       x="196.3703"
       y="458.23752">0</tspan></text>
  <path
     sodipodi:nodetypes="cc"
     inkscape:connector-curvature="0"
     id="path6516"
     d="m 452.46177,321.24924 c 52.01894,29.5538 54.53824,181.10028 7.90276,214.90151"
     style="fill:none;stroke:#000000;stroke-width:0.80000001;stroke-linecap:butt;stroke-linejoin:miter;stroke-miterlimit:4;stroke-opacity:1;stroke-dasharray:none;marker-end:url(#Arrow1Lend)" />
  <text
     sodipodi:linespacing="125%"
     id="text6518"
     y="321.4375"
     x="458.77032"
     style="font-size:16px;font-style:normal;font-variant:normal;font-weight:normal;font-stretch:normal;text-align:start;line-height:125%;letter-spacing:0px;word-spacing:0px;writing-mode:lr-tb;text-anchor:start;fill:#000000;fill-opacity:1;stroke:none;font-family:Serif;-inkscape-font-specification:Serif"
     xml:space="preserve"><tspan
       y="321.4375"
       x="458.77032"
       id="tspan6520"
       sodipodi:role="line">1</tspan></text>
  <path
     style="fill:none;stroke:#000000;stroke-width:0.80000001;stroke-linecap:butt;stroke-linejoin:miter;stroke-miterlimit:4;stroke-opacity:1;stroke-dasharray:none;marker-end:url(#Arrow1Lend)"
     d="M 379.91016,464.55324 C 337.49122,416.59945 337.37192,298.65297 383.2074,252.85173"
     id="path6522"
     inkscape:connector-curvature="0"
     sodipodi:nodetypes="cc" />
  <text
     sodipodi:linespacing="125%"
     id="text6524"
     y="458.23752"
     x="357.17029"
     style="font-size:16px;font-style:normal;font-variant:normal;font-weight:normal;font-stretch:normal;text-align:start;line-height:125%;letter-spacing:0px;word-spacing:0px;writing-mode:lr-tb;text-anchor:start;fill:#000000;fill-opacity:1;stroke:none;font-family:Serif;-inkscape-font-specification:Serif"
     xml:space="preserve"><tspan
       id="tspan6526"
       sodipodi:role="line"
       x="357.17029"
       y="458.23752">0</tspan></text>
  <path
     style="fill:none;stroke:#000000;stroke-width:0.80000001;stroke-linecap:butt;stroke-linejoin:miter;stroke-miterlimit:4;stroke-opacity:1;stroke-dasharray:none;marker-end:url(#Arrow1Lend)"
     d="M 215.11016,534.15324 C 145.49122,623.79945 90.971919,232.25297 200.8074,129.65173"
     id="path6528"
     inkscape:connector-curvature="0"
     sodipodi:nodetypes="cc" />
  <path
     style="fill:none;stroke:#000000;stroke-width:0.80000001;stroke-linecap:butt;stroke-linejoin:miter;stroke-miterlimit:4;stroke-opacity:1;stroke-dasharray:none;marker-end:url(#Arrow1Lend)"
     d="M 372.60702,542.55075 C 334.19755,570.57386 313.36331,583.92903 221.76023,582.49279 135.10582,581.13414 94.986519,217.74986 203.10426,130.04925"
     id="path6528-8"
     inkscape:connector-curvature="0"
     sodipodi:nodetypes="csc" />
  <path
     style="fill:none;stroke:#000000;stroke-width:0.80000001;stroke-linecap:butt;stroke-linejoin:miter;stroke-miterlimit:4;stroke-opacity:1;stroke-dasharray:none;marker-end:url(#Arrow1Lend)"
     d="m 418.25691,553.06703 c 0.39053,61.22311 -23.84403,56.94804 -254.24679,56.04204 C 67.710155,608.73039 48.23641,375.46614 85.554149,133.36552"
     id="path6528-8-5"
     inkscape:connector-curvature="0"
     sodipodi:nodetypes="csc" />
  <path
     style="fill:none;stroke:#000000;stroke-width:0.80000001;stroke-linecap:butt;stroke-linejoin:miter;stroke-miterlimit:4;stroke-opacity:1;stroke-dasharray:none;marker-end:url(#Arrow1Lend)"
     d="m 265.16755,552.12599 c 0.39052,64.42311 17.75596,56.14804 -103.0468,56.84204 C 65.82163,609.52126 48.747039,372.9251 85.264779,131.62448"
     id="path6528-8-5-2"
     inkscape:connector-curvature="0"
     sodipodi:nodetypes="csc" />
  <text
     xml:space="preserve"
     style="font-size:16px;font-style:normal;font-variant:normal;font-weight:normal;font-stretch:normal;text-align:start;line-height:125%;letter-spacing:0px;word-spacing:0px;writing-mode:lr-tb;text-anchor:start;fill:#000000;fill-opacity:1;stroke:none;font-family:Serif;-inkscape-font-specification:Serif"
     x="423.41406"
     y="567.72418"
     id="text6421-1-1"
     sodipodi:linespacing="125%"><tspan
       y="567.72418"
       x="423.41406"
       sodipodi:role="line"
       id="tspan6514-8">0</tspan></text>
  <text
     xml:space="preserve"
     style="font-size:16px;font-style:normal;font-variant:normal;font-weight:normal;font-stretch:normal;text-align:start;line-height:125%;letter-spacing:0px;word-spacing:0px;writing-mode:lr-tb;text-anchor:start;fill:#000000;fill-opacity:1;stroke:none;font-family:Serif;-inkscape-font-specification:Serif"
     x="268.21405"
     y="567.72424"
     id="text6421-1-9"
     sodipodi:linespacing="125%"><tspan
       y="567.72424"
       x="268.21405"
       sodipodi:role="line"
       id="tspan6514-7">0</tspan></text>
  <text
     xml:space="preserve"
     style="font-size:16px;font-style:normal;font-variant:normal;font-weight:normal;font-stretch:normal;text-align:start;line-height:125%;letter-spacing:0px;word-spacing:0px;writing-mode:lr-tb;text-anchor:start;fill:#000000;fill-opacity:1;stroke:none;font-family:Serif;-inkscape-font-specification:Serif"
     x="200.37032"
     y="534.23749"
     id="text6421-5"
     sodipodi:linespacing="125%"><tspan
       sodipodi:role="line"
       id="tspan6423-32"
       x="200.37032"
       y="534.23749">1</tspan></text>
  <text
     xml:space="preserve"
     style="font-size:16px;font-style:normal;font-variant:normal;font-weight:normal;font-stretch:normal;text-align:start;line-height:125%;letter-spacing:0px;word-spacing:0px;writing-mode:lr-tb;text-anchor:start;fill:#000000;fill-opacity:1;stroke:none;font-family:Serif;-inkscape-font-specification:Serif"
     x="359.57031"
     y="539.03754"
     id="text6421-18"
     sodipodi:linespacing="125%"><tspan
       sodipodi:role="line"
       id="tspan6423-1"
       x="359.57031"
       y="539.03754">1</tspan></text>
</svg>
